<svg xmlns="http://www.w3.org/2000/svg" viewBox="0 0 32 32" width="32" height="32" role="img" aria-label="LER Tests flame logo">
	<rect width="32" height="32" rx="6" fill="hsl(234 16% 13%)" />
	<!-- Outer flame: deep ember -->
	<path
		d="M16 5 C13.5 10, 9.5 12.5, 9.5 18.5 C9.5 24, 12.5 27.5, 16 27.5 C19.5 27.5, 22.5 24, 22.5 18.5 C22.5 12.5, 18.5 10, 16 5 Z"
		fill="hsl(14 85% 47%)"
	/>
	<!-- Middle flame: live orange -->
	<path
		d="M16 10 C14.4 13.2, 12 15, 12 19 C12 22.3, 13.6 25.2, 16 25.2 C18.4 25.2, 20 22.3, 20 19 C20 15, 17.6 13.2, 16 10 Z"
		fill="hsl(24 92% 55%)"
	/>
	<!-- Inner flame: warm amber core -->
	<path
		d="M16 14.5 C15.2 16.6, 14 18, 14 20.4 C14 22.4, 14.8 23.8, 16 23.8 C17.2 23.8, 18 22.4, 18 20.4 C18 18, 16.8 16.6, 16 14.5 Z"
		fill="hsl(40 96% 68%)"
	/>
</svg>
