<svg xmlns="http://www.w3.org/2000/svg" viewBox="0 0 32 32" width="32" height="32" role="img" aria-label="LIT Suite flame logo">
	<!-- Outer flame: deep ember -->
	<path
		d="M16 3 C13 9, 8 12, 8 19 C8 25.5, 11.5 30, 16 30 C20.5 30, 24 25.5, 24 19 C24 12, 19 9, 16 3 Z"
		fill="hsl(14 85% 47%)"
	/>
	<!-- Middle flame: live orange -->
	<path
		d="M16 9 C14 13, 11 15, 11 20 C11 24, 13 27.5, 16 27.5 C19 27.5, 21 24, 21 20 C21 15, 18 13, 16 9 Z"
		fill="hsl(24 92% 55%)"
	/>
	<!-- Inner flame: warm amber core -->
	<path
		d="M16 15 C15 17.5, 13.5 19, 13.5 22 C13.5 24.5, 14.5 26, 16 26 C17.5 26, 18.5 24.5, 18.5 22 C18.5 19, 17 17.5, 16 15 Z"
		fill="hsl(40 96% 68%)"
	/>
</svg>
